<svg xmlns="http://www.w3.org/2000/svg" viewBox="0 0 178.19 44.1"><defs><style>.cls-1{fill:#f9eeac;}.cls-2{fill:none;stroke:#506674;stroke-linecap:round;stroke-linejoin:bevel;stroke-width:1.5px;}.cls-3{isolation:isolate;}.cls-4{fill:#3a3d43;}</style></defs><g id="レイヤー_2" data-name="レイヤー 2"><g id="レイヤー_1-2" data-name="レイヤー 1"><circle class="cls-1" cx="21.5" cy="21.5" r="21.5"/><path id="パス_108" data-name="パス 108" class="cls-2" d="M30.53,11.38c-2.66.33-10.48,9.36-10.85,11.78-.27,3.72-6.47,9.64-7.11,8.25-1-2.41,5.67-7.16,7.11-8.95,2.33-3.16-.43-11.27-4.1-11.08s3.66,7.21,4.1,11.08,6.28,9.89,10.85,9"/><g id="Keiko_Kobayashi" data-name="Keiko Kobayashi" class="cls-3"><g class="cls-3"><path class="cls-4" d="M60.7,6.2a5.92,5.92,0,0,0-.07-1,1.56,1.56,0,0,0-.25-.68,1.16,1.16,0,0,0-.55-.41,2.74,2.74,0,0,0-.94-.18.2.2,0,0,1-.17-.11.54.54,0,0,1,0-.22.46.46,0,0,1,0-.2.19.19,0,0,1,.17-.1c.41,0,.87,0,1.39.07s1,.06,1.46.06h.73l.62-.05.62,0,.71,0a.17.17,0,0,1,.17.1.36.36,0,0,1,.06.2.43.43,0,0,1-.06.22.17.17,0,0,1-.15.11,3.26,3.26,0,0,0-.92.16,1,1,0,0,0-.5.38,1.33,1.33,0,0,0-.21.67,10.63,10.63,0,0,0,0,1.07V9.6a.24.24,0,0,0,.15.26c.1,0,.24,0,.42-.22a28.55,28.55,0,0,0,2.19-2.43,16.47,16.47,0,0,0,1.42-2,2,2,0,0,0,.26-.64.48.48,0,0,0-.1-.38.72.72,0,0,0-.38-.2c-.17,0-.37-.07-.6-.09a.27.27,0,0,1-.2-.12.37.37,0,0,1-.06-.21.46.46,0,0,1,0-.2.19.19,0,0,1,.17-.1,8.47,8.47,0,0,1,1.19.07,9.73,9.73,0,0,0,1.1.06,6.22,6.22,0,0,0,.91-.06,5.4,5.4,0,0,1,1-.07.15.15,0,0,1,.15.1.45.45,0,0,1,0,.2.46.46,0,0,1,0,.21.18.18,0,0,1-.15.12,4.17,4.17,0,0,0-.63.1,2.75,2.75,0,0,0-.46.18,1.58,1.58,0,0,0-.38.32c-.12.13-.26.3-.42.5l-.72,1c-.24.33-.5.66-.76,1l-.78,1c-.26.31-.51.58-.75.83-.1.1-.13.19-.08.27a1.23,1.23,0,0,0,.23.28,11,11,0,0,1,1,1c.32.36.65.76,1,1.19s.65.88,1,1.34.61.92.89,1.38a3.43,3.43,0,0,0,.87,1,2.55,2.55,0,0,0,1.27.42.22.22,0,0,1,.17.12.37.37,0,0,1,.06.21.36.36,0,0,1-.06.2.17.17,0,0,1-.17.1l-.76,0L70,16.16l-.64-.05c-.21,0-.44,0-.68,0s-.47,0-.67,0l-.6.05-.6.05-.68,0a.19.19,0,0,1-.18-.1.5.5,0,0,1-.08-.2.43.43,0,0,1,.06-.22.23.23,0,0,1,.2-.11l.43-.06a.78.78,0,0,0,.35-.18A.54.54,0,0,0,67.1,15a1.2,1.2,0,0,0-.15-.56c-.22-.41-.41-.78-.59-1.1a9,9,0,0,0-1.21-1.68c-.23-.26-.51-.53-.82-.83a1.16,1.16,0,0,0-.47-.26,1.69,1.69,0,0,0-.39-.06.6.6,0,0,0-.57.24,1,1,0,0,0-.13.5v2.4a8.18,8.18,0,0,0,0,1,1.15,1.15,0,0,0,.2.56.74.74,0,0,0,.46.28,5.83,5.83,0,0,0,.83.13.31.31,0,0,1,.18.12.38.38,0,0,1,.07.21.37.37,0,0,1-.07.2.22.22,0,0,1-.2.1l-.69,0L63,16.16l-.59-.05a6.4,6.4,0,0,0-.64,0c-.48,0-1,0-1.49.07s-1,.08-1.39.08a.19.19,0,0,1-.18-.1.46.46,0,0,1-.05-.2.46.46,0,0,1,.05-.21.26.26,0,0,1,.18-.12,5.75,5.75,0,0,0,.94-.14,1.25,1.25,0,0,0,.55-.28,1,1,0,0,0,.26-.56,4.94,4.94,0,0,0,.07-1Z"/><path class="cls-4" d="M79.05,11.27c-.06,0-.1,0-.1.07a.76.76,0,0,0,0,.16,5.41,5.41,0,0,0,.22,1.67,2.81,2.81,0,0,0,.61,1.11,2.18,2.18,0,0,0,.93.62,3.4,3.4,0,0,0,1.16.19,7.39,7.39,0,0,0,1.26-.1,2.21,2.21,0,0,0,1-.47.26.26,0,0,1,.2-.06.32.32,0,0,1,.17.1.32.32,0,0,1,.09.17.21.21,0,0,1,0,.17A3.21,3.21,0,0,1,83.21,16a5.76,5.76,0,0,1-3.84,0A3.4,3.4,0,0,1,78,15a3.91,3.91,0,0,1-.8-1.44,6,6,0,0,1-.26-1.79A5,5,0,0,1,77.26,10a4.34,4.34,0,0,1,.88-1.45,4.56,4.56,0,0,1,1.35-1,4.09,4.09,0,0,1,1.73-.36,3.75,3.75,0,0,1,1.45.28,3.13,3.13,0,0,1,1.11.76,3.35,3.35,0,0,1,.72,1.16,4.05,4.05,0,0,1,.25,1.45c0,.27-.09.4-.28.4Zm3.48-.66c.18,0,.28-.07.3-.19a2.07,2.07,0,0,0,0-.46,2.48,2.48,0,0,0-.12-.77,2,2,0,0,0-.35-.65,1.71,1.71,0,0,0-.55-.46,1.54,1.54,0,0,0-.75-.17,2,2,0,0,0-.88.18,2.12,2.12,0,0,0-.63.47,2.08,2.08,0,0,0-.39.7,4.36,4.36,0,0,0-.18.83,1.32,1.32,0,0,0,0,.37c0,.1,0,.15.08.15Z"/><path class="cls-4" d="M93.27,13.82c0,.31,0,.58,0,.8a1.33,1.33,0,0,0,.14.53.73.73,0,0,0,.35.32,2.23,2.23,0,0,0,.67.17.21.21,0,0,1,.17.11.32.32,0,0,1,.06.2.32.32,0,0,1-.06.18.19.19,0,0,1-.17.08,6.87,6.87,0,0,1-.89-.07,10.37,10.37,0,0,0-1.12-.06,11.56,11.56,0,0,0-1.19.06,8.7,8.7,0,0,1-1.11.07.19.19,0,0,1-.15-.08.32.32,0,0,1-.06-.18.32.32,0,0,1,.06-.2.23.23,0,0,1,.17-.11,3,3,0,0,0,.77-.17.92.92,0,0,0,.4-.31,1.09,1.09,0,0,0,.14-.5c0-.19,0-.44,0-.73V10.87c0-.54,0-1,0-1.31a1.89,1.89,0,0,0-.17-.75.69.69,0,0,0-.4-.35,3.32,3.32,0,0,0-.72-.15.18.18,0,0,1-.17-.1A.33.33,0,0,1,89.92,8,.38.38,0,0,1,90,7.83a.19.19,0,0,1,.17-.09l.46,0,.58,0,.62-.07.56-.11a1.59,1.59,0,0,0,.33-.08.48.48,0,0,1,.2,0c.16,0,.25,0,.3.13a.63.63,0,0,1,.07.25Zm-1-8.42a1.24,1.24,0,0,1-.82-.29.93.93,0,0,1-.34-.74,1,1,0,0,1,.32-.74,1.14,1.14,0,0,1,.8-.3,1,1,0,0,1,.75.31,1.05,1.05,0,0,1,.3.75,1,1,0,0,1-.29.72A1,1,0,0,1,92.26,5.4Z"/><path class="cls-4" d="M109.55,16.21l-.62,0-.66,0q-.37,0-.75,0l-.69,0a.21.21,0,0,1-.19-.09,1.22,1.22,0,0,1-.08-.17,5.41,5.41,0,0,0-.5-1.5,5.63,5.63,0,0,0-.81-1.22,3.63,3.63,0,0,0-1-.84,2,2,0,0,0-1-.3v1.48c0,.37,0,.67,0,.91a1.58,1.58,0,0,0,.12.59.82.82,0,0,0,.33.36,2.12,2.12,0,0,0,.67.21.23.23,0,0,1,.17.11.39.39,0,0,1,.06.2.32.32,0,0,1-.06.18.2.2,0,0,1-.17.08,5.74,5.74,0,0,1-1-.07,7.52,7.52,0,0,0-1-.06,11.71,11.71,0,0,0-1.19.06,9.66,9.66,0,0,1-1.2.07.19.19,0,0,1-.15-.08A.32.32,0,0,1,99.8,16a.32.32,0,0,1,.06-.2.23.23,0,0,1,.17-.11,3.22,3.22,0,0,0,.82-.17.91.91,0,0,0,.43-.31,1.09,1.09,0,0,0,.16-.5c0-.19,0-.44,0-.73V6.46c0-.54,0-1,0-1.3a1.76,1.76,0,0,0-.21-.75.9.9,0,0,0-.52-.36,6.12,6.12,0,0,0-1-.15.15.15,0,0,1-.14-.1.6.6,0,0,1-.06-.19.46.46,0,0,1,0-.19.17.17,0,0,1,.16-.09c.46,0,1-.06,1.51-.12a7.71,7.71,0,0,0,1.53-.28q.27-.08.36,0a.49.49,0,0,1,.1.22v8.09a4.83,4.83,0,0,0,.68-.51,5.47,5.47,0,0,0,.59-.59c.18-.2.34-.4.5-.59l.4-.49q.38-.5.33-.72c0-.14-.25-.23-.66-.25a.17.17,0,0,1-.15-.1.33.33,0,0,1-.06-.19.36.36,0,0,1,.06-.2.19.19,0,0,1,.15-.08,4,4,0,0,1,.52,0l.4,0,.36,0,.39,0a5.54,5.54,0,0,0,.9-.07,6.77,6.77,0,0,1,.89-.06.16.16,0,0,1,.13.08.36.36,0,0,1,.06.2.35.35,0,0,1,0,.18.22.22,0,0,1-.14.11,3.13,3.13,0,0,0-.63.11,1.85,1.85,0,0,0-.45.21,2.87,2.87,0,0,0-.4.31l-.46.43-.45.42-.62.56c-.22.2-.44.38-.65.56l-.54.44s-.07.07-.06.11,0,.06.08.06a3.6,3.6,0,0,1,1.26.25,2.73,2.73,0,0,1,.85.56,3.27,3.27,0,0,1,.58.75c.16.27.32.56.47.86a7.86,7.86,0,0,0,.54.87,3.28,3.28,0,0,0,.75.79,1,1,0,0,0,.33.16,2.7,2.7,0,0,0,.41.07.19.19,0,0,1,.17.1.37.37,0,0,1,.06.21.32.32,0,0,1-.06.18A.21.21,0,0,1,109.55,16.21Z"/><path class="cls-4" d="M123.28,11.52a5.92,5.92,0,0,1-.32,2.05A3.89,3.89,0,0,1,120.61,16a5.28,5.28,0,0,1-1.87.32,4.48,4.48,0,0,1-1.65-.3,3.54,3.54,0,0,1-1.31-.87,4.1,4.1,0,0,1-.87-1.47,5.9,5.9,0,0,1-.33-2.08,4.65,4.65,0,0,1,.33-1.77,3.84,3.84,0,0,1,.9-1.38,4,4,0,0,1,1.39-.89A4.75,4.75,0,0,1,119,7.22a5,5,0,0,1,1.72.29A3.72,3.72,0,0,1,123,9.67,4.85,4.85,0,0,1,123.28,11.52Zm-2,.21a9.36,9.36,0,0,0-.1-1.41,4,4,0,0,0-.34-1.21,2.16,2.16,0,0,0-.68-.86,1.88,1.88,0,0,0-1.12-.32,2.21,2.21,0,0,0-1.24.32,2.41,2.41,0,0,0-.75.86,4.22,4.22,0,0,0-.38,1.23,9.44,9.44,0,0,0-.1,1.43,10,10,0,0,0,.09,1.32,4.61,4.61,0,0,0,.36,1.24,2.44,2.44,0,0,0,.74.91,1.86,1.86,0,0,0,1.18.36,1.92,1.92,0,0,0,1.2-.34,2.32,2.32,0,0,0,.71-.89,4,4,0,0,0,.34-1.25A10.7,10.7,0,0,0,121.29,11.73Z"/></g><g class="cls-3"><path class="cls-4" d="M60.7,28.2a5.92,5.92,0,0,0-.07-1,1.56,1.56,0,0,0-.25-.68,1.16,1.16,0,0,0-.55-.41,2.74,2.74,0,0,0-.94-.18.2.2,0,0,1-.17-.11.54.54,0,0,1,0-.22.46.46,0,0,1,0-.2.19.19,0,0,1,.17-.1c.41,0,.87,0,1.39.07s1,.06,1.46.06h.73l.62-.05.62-.05.71,0a.17.17,0,0,1,.17.1.36.36,0,0,1,.06.2.43.43,0,0,1-.06.22.17.17,0,0,1-.15.11,3.26,3.26,0,0,0-.92.16,1,1,0,0,0-.5.38,1.33,1.33,0,0,0-.21.67,10.63,10.63,0,0,0,0,1.07v3.4a.24.24,0,0,0,.15.26c.1,0,.24-.05.42-.22a28.55,28.55,0,0,0,2.19-2.43,16.47,16.47,0,0,0,1.42-2,2,2,0,0,0,.26-.64.48.48,0,0,0-.1-.38.72.72,0,0,0-.38-.2c-.17,0-.37-.07-.6-.09a.27.27,0,0,1-.2-.12.37.37,0,0,1-.06-.21.46.46,0,0,1,0-.2.19.19,0,0,1,.17-.1,8.47,8.47,0,0,1,1.19.07,9.73,9.73,0,0,0,1.1.06,6.22,6.22,0,0,0,.91-.06,5.4,5.4,0,0,1,1-.07.15.15,0,0,1,.15.1.45.45,0,0,1,0,.2.46.46,0,0,1,0,.21.18.18,0,0,1-.15.12,4.17,4.17,0,0,0-.63.1,2.75,2.75,0,0,0-.46.18,1.58,1.58,0,0,0-.38.32c-.12.13-.26.3-.42.5l-.72.95c-.24.33-.5.66-.76,1l-.78.95c-.26.31-.51.58-.75.83-.1.1-.13.19-.08.27a1.23,1.23,0,0,0,.23.28,11,11,0,0,1,1,1c.32.36.65.76,1,1.19s.65.88,1,1.34.61.92.89,1.38a3.43,3.43,0,0,0,.87,1,2.55,2.55,0,0,0,1.27.42.22.22,0,0,1,.17.12.37.37,0,0,1,.06.21.36.36,0,0,1-.06.2.17.17,0,0,1-.17.1l-.76,0L70,38.16l-.64,0c-.21,0-.44,0-.68,0s-.47,0-.67,0l-.6,0-.6.05-.68,0a.19.19,0,0,1-.18-.1.5.5,0,0,1-.08-.2.43.43,0,0,1,.06-.22.23.23,0,0,1,.2-.11l.43-.06a.78.78,0,0,0,.35-.18A.54.54,0,0,0,67.1,37a1.2,1.2,0,0,0-.15-.56c-.22-.41-.41-.78-.59-1.1a9,9,0,0,0-1.21-1.68c-.23-.26-.51-.53-.82-.83a1.16,1.16,0,0,0-.47-.26,1.69,1.69,0,0,0-.39-.06.6.6,0,0,0-.57.24,1,1,0,0,0-.13.5v2.4a8.18,8.18,0,0,0,0,1,1.15,1.15,0,0,0,.2.56.74.74,0,0,0,.46.28,5.83,5.83,0,0,0,.83.13.31.31,0,0,1,.18.12.38.38,0,0,1,.07.21.37.37,0,0,1-.07.2.22.22,0,0,1-.2.1l-.69,0L63,38.16l-.59,0a6.4,6.4,0,0,0-.64,0c-.48,0-1,0-1.49.07s-1,.08-1.39.08a.19.19,0,0,1-.18-.1.46.46,0,0,1-.05-.2.46.46,0,0,1,.05-.21.26.26,0,0,1,.18-.12,5.75,5.75,0,0,0,.94-.14,1.25,1.25,0,0,0,.55-.28,1,1,0,0,0,.26-.56,4.94,4.94,0,0,0,.07-1Z"/><path class="cls-4" d="M85.65,33.52a5.92,5.92,0,0,1-.33,2A3.89,3.89,0,0,1,83,38a5.28,5.28,0,0,1-1.87.32,4.48,4.48,0,0,1-1.65-.3,3.54,3.54,0,0,1-1.31-.87,4.1,4.1,0,0,1-.87-1.47,5.9,5.9,0,0,1-.33-2.08,4.65,4.65,0,0,1,.33-1.77,3.84,3.84,0,0,1,.9-1.38,4,4,0,0,1,1.4-.89,4.7,4.7,0,0,1,1.78-.33,5,5,0,0,1,1.72.29,3.72,3.72,0,0,1,2.25,2.16A4.85,4.85,0,0,1,85.65,33.52Zm-2,.21a10.89,10.89,0,0,0-.09-1.41,4.29,4.29,0,0,0-.35-1.21,2.16,2.16,0,0,0-.68-.86,1.88,1.88,0,0,0-1.12-.32,2.21,2.21,0,0,0-1.24.32,2.41,2.41,0,0,0-.75.86A4.22,4.22,0,0,0,79,32.34a9.44,9.44,0,0,0-.1,1.43A10,10,0,0,0,79,35.09a4.28,4.28,0,0,0,.37,1.24,2.42,2.42,0,0,0,.73.91,1.86,1.86,0,0,0,1.18.36,1.92,1.92,0,0,0,1.2-.34,2.32,2.32,0,0,0,.71-.89,4,4,0,0,0,.34-1.25A10.7,10.7,0,0,0,83.65,33.73Z"/><path class="cls-4" d="M92.26,28.48c0-.54,0-1,0-1.31a2,2,0,0,0-.14-.75.7.7,0,0,0-.39-.35,4,4,0,0,0-.76-.15.16.16,0,0,1-.15-.1.41.41,0,0,1,0-.19.28.28,0,0,1,0-.19.16.16,0,0,1,.16-.09c.36,0,.78-.06,1.24-.12a7.89,7.89,0,0,0,1.4-.28c.18-.05.29,0,.35,0a.4.4,0,0,1,.1.22v5.45s0,0,0,0a.07.07,0,0,0,.06,0,3.42,3.42,0,0,1,1-1,3,3,0,0,1,1.66-.44,2.85,2.85,0,0,1,1.44.36,3.26,3.26,0,0,1,1.06.93,4.06,4.06,0,0,1,.64,1.34,5.46,5.46,0,0,1,.22,1.57,5.58,5.58,0,0,1-.39,2.18A4.13,4.13,0,0,1,97.2,38a5.65,5.65,0,0,1-1.85.3,12.16,12.16,0,0,1-1.42-.09,7.49,7.49,0,0,1-1.67-.41ZM94,36.22a.82.82,0,0,0,.14.34,1.84,1.84,0,0,0,.37.44,3.12,3.12,0,0,0,.57.37,1.74,1.74,0,0,0,.73.16A1.94,1.94,0,0,0,97,37.21a2.23,2.23,0,0,0,.72-.85,4.16,4.16,0,0,0,.37-1.25,9.89,9.89,0,0,0,.11-1.48,9.57,9.57,0,0,0-.08-1.24,3.31,3.31,0,0,0-.28-1,1.66,1.66,0,0,0-.56-.69,1.6,1.6,0,0,0-1-.26,2.12,2.12,0,0,0-.91.19,2.87,2.87,0,0,0-.72.46,2,2,0,0,0-.47.59,1.17,1.17,0,0,0-.18.57Z"/><path class="cls-4" d="M112.59,36.06a2.55,2.55,0,0,0,.12.94.49.49,0,0,0,.49.26.84.84,0,0,0,.34,0,1.77,1.77,0,0,0,.38-.2.13.13,0,0,1,.12,0,.29.29,0,0,1,.11.11.26.26,0,0,1,.07.15.14.14,0,0,1,0,.14,2.19,2.19,0,0,1-1.74.9,1.47,1.47,0,0,1-.94-.3,1.81,1.81,0,0,1-.58-.69c0-.07-.07-.07-.12,0a4.31,4.31,0,0,1-1.15.72,4.08,4.08,0,0,1-1.64.29,2.3,2.3,0,0,1-1.67-.58,2.19,2.19,0,0,1-.59-1.65A2.3,2.3,0,0,1,107,34a7.65,7.65,0,0,1,3.71-.73s0,0,0-.09a2.21,2.21,0,0,0,0-.44v-.51a5.14,5.14,0,0,0-.07-.9,2.34,2.34,0,0,0-.26-.73,1.31,1.31,0,0,0-.5-.49,1.66,1.66,0,0,0-.8-.18,2.14,2.14,0,0,0-1.14.27.83.83,0,0,0-.44.72.76.76,0,0,0,.13.4.75.75,0,0,1,.14.41.72.72,0,0,1-.27.52.93.93,0,0,1-.65.24.89.89,0,0,1-.73-.27,1.11,1.11,0,0,1-.22-.68,1.68,1.68,0,0,1,.27-.9,2.5,2.5,0,0,1,.72-.73,4.28,4.28,0,0,1,2.34-.67,3.7,3.7,0,0,1,2.39.71,2.8,2.8,0,0,1,.88,2.33Zm-1.79-1.88a.66.66,0,0,0,0-.25s0,0-.09,0a4.81,4.81,0,0,0-2.31.66,1.55,1.55,0,0,0-.75,1.33,1.58,1.58,0,0,0,.28,1,1.1,1.1,0,0,0,1,.39,2.88,2.88,0,0,0,1.79-.66.43.43,0,0,0,.15-.31Z"/><path class="cls-4" d="M124,35.66c0,.08.08.11.14.1a.14.14,0,0,0,.12-.1c.39-.77.74-1.51,1-2.23s.56-1.4.79-2.06a1.65,1.65,0,0,0,.13-.57.6.6,0,0,0-.1-.34.79.79,0,0,0-.27-.21,1.35,1.35,0,0,0-.34-.11l-.32-.06a.21.21,0,0,1-.16-.11.35.35,0,0,1,0-.18.27.27,0,0,1,.06-.17.18.18,0,0,1,.15-.07,6.23,6.23,0,0,1,.74,0,4.93,4.93,0,0,0,.76.05,6.88,6.88,0,0,0,.9-.05c.3,0,.54,0,.72,0a.15.15,0,0,1,.14.07.38.38,0,0,1,.05.19.35.35,0,0,1-.05.18.15.15,0,0,1-.14.09,1.52,1.52,0,0,0-.48.13,1.06,1.06,0,0,0-.32.28,3,3,0,0,0-.27.45q-.12.28-.3.66-.56,1.2-1.14,2.55c-.39.91-.81,1.84-1.25,2.79s-.82,1.76-1.25,2.61-.83,1.66-1.22,2.4c-.1.19-.23.41-.38.66a4.51,4.51,0,0,1-.54.7,3,3,0,0,1-.72.56,1.67,1.67,0,0,1-1.71,0,.84.84,0,0,1-.4-.77,1,1,0,0,1,.25-.68.83.83,0,0,1,.65-.29.47.47,0,0,1,.26.07,1.41,1.41,0,0,1,.18.14l.19.15a.53.53,0,0,0,.26.06.77.77,0,0,0,.48-.26,7.56,7.56,0,0,0,.56-.68,10.31,10.31,0,0,0,.58-.91c.2-.34.38-.66.55-1s.3-.6.42-.85l.26-.55a1.22,1.22,0,0,0,.1-.4.74.74,0,0,0-.08-.34c-.41-.84-.86-1.77-1.35-2.8s-1-2.05-1.41-3.08a7.89,7.89,0,0,0-.34-.74,1.85,1.85,0,0,0-.31-.45,1.07,1.07,0,0,0-.37-.27,2.63,2.63,0,0,0-.53-.15.21.21,0,0,1-.15-.11.34.34,0,0,1,0-.18.26.26,0,0,1,0-.17.19.19,0,0,1,.16-.07c.39,0,.76,0,1.13,0a9.83,9.83,0,0,0,1.09.05,9.65,9.65,0,0,0,1.08-.05c.36,0,.72,0,1.08,0a.16.16,0,0,1,.15.07.33.33,0,0,1,0,.17.34.34,0,0,1,0,.18.19.19,0,0,1-.15.11,2.27,2.27,0,0,0-.85.23.46.46,0,0,0-.25.42,2.12,2.12,0,0,0,.17.79c.27.71.56,1.42.88,2.13S123.7,35,124,35.66Z"/><path class="cls-4" d="M140,36.06a2.31,2.31,0,0,0,.13.94.48.48,0,0,0,.48.26.84.84,0,0,0,.34,0,1.57,1.57,0,0,0,.38-.2.15.15,0,0,1,.13,0,.38.38,0,0,1,.11.11.52.52,0,0,1,.07.15.14.14,0,0,1,0,.14,2.21,2.21,0,0,1-1.75.9A1.49,1.49,0,0,1,139,38a1.9,1.9,0,0,1-.58-.69c0-.07-.06-.07-.11,0a4.48,4.48,0,0,1-1.15.72,4.17,4.17,0,0,1-1.65.29,2.3,2.3,0,0,1-1.67-.58,2.23,2.23,0,0,1-.59-1.65,2.31,2.31,0,0,1,1.28-2.1,7.61,7.61,0,0,1,3.7-.73s0,0,.06-.09a3.48,3.48,0,0,0,0-.44v-.51a5.11,5.11,0,0,0-.08-.9,2.34,2.34,0,0,0-.26-.73,1.24,1.24,0,0,0-.5-.49,1.61,1.61,0,0,0-.8-.18,2.14,2.14,0,0,0-1.14.27.82.82,0,0,0-.43.72.68.68,0,0,0,.13.4.73.73,0,0,1,.13.41.74.74,0,0,1-.26.52,1,1,0,0,1-.65.24.88.88,0,0,1-.73-.27,1,1,0,0,1-.22-.68,1.68,1.68,0,0,1,.27-.9,2.28,2.28,0,0,1,.72-.73,4.32,4.32,0,0,1,1.06-.49,4.48,4.48,0,0,1,1.27-.18,3.71,3.71,0,0,1,2.4.71,2.82,2.82,0,0,1,.87,2.33Zm-1.78-1.88a1,1,0,0,0,0-.25.1.1,0,0,0-.1,0,4.81,4.81,0,0,0-2.31.66,1.55,1.55,0,0,0-.75,1.33,1.59,1.59,0,0,0,.29,1,1.1,1.1,0,0,0,.95.39,2.61,2.61,0,0,0,.92-.17,2.71,2.71,0,0,0,.86-.49.41.41,0,0,0,.16-.31Z"/><path class="cls-4" d="M152.62,29.51a4.19,4.19,0,0,0-.1.51,3.36,3.36,0,0,0-.05.65c0,.24,0,.49,0,.75s0,.46,0,.6,0,.07-.08.09a.48.48,0,0,1-.17,0,.32.32,0,0,1-.17,0,.21.21,0,0,1-.1-.08,3.28,3.28,0,0,0-.68-1.55,1.93,1.93,0,0,0-1.52-.55,1.83,1.83,0,0,0-1.16.36,1.12,1.12,0,0,0-.46.94.88.88,0,0,0,.38.76,4.76,4.76,0,0,0,1,.49l.64.24.6.24c.33.15.63.31.92.47a3.58,3.58,0,0,1,.74.58,2.49,2.49,0,0,1,.49.75,2.43,2.43,0,0,1,.18,1,2.29,2.29,0,0,1-.3,1.21,2.42,2.42,0,0,1-.78.78,3.68,3.68,0,0,1-1.08.42,5.6,5.6,0,0,1-1.2.14,5.67,5.67,0,0,1-1.1-.12,4.35,4.35,0,0,1-1.07-.32.25.25,0,0,0-.23,0,.35.35,0,0,0-.16.28s0,.07-.09.08l-.18,0a.4.4,0,0,1-.15,0s-.08,0-.08-.09a2.61,2.61,0,0,1,0-.42,4.4,4.4,0,0,0,0-.49,4.6,4.6,0,0,0,0-.5q0-.28-.06-.54c0-.18,0-.34,0-.48s0-.24,0-.3a.13.13,0,0,1,.07-.12.47.47,0,0,1,.17,0,.51.51,0,0,1,.18,0,.17.17,0,0,1,.11.11,4.58,4.58,0,0,0,.34,1,2.33,2.33,0,0,0,.52.7,2.09,2.09,0,0,0,.76.43,3.78,3.78,0,0,0,1.08.14,1.64,1.64,0,0,0,1.11-.38,1.36,1.36,0,0,0,.42-1.06,1.17,1.17,0,0,0-.42-1,4.7,4.7,0,0,0-1-.62l-.54-.23-.56-.23-.83-.35a3.22,3.22,0,0,1-.72-.44,1.87,1.87,0,0,1-.5-.67,2.21,2.21,0,0,1-.19-1,2.15,2.15,0,0,1,.29-1.16,2.4,2.4,0,0,1,.76-.76,3.31,3.31,0,0,1,1-.43,4.84,4.84,0,0,1,1.12-.14,3.39,3.39,0,0,1,.94.13,3.69,3.69,0,0,1,.9.44.23.23,0,0,0,.2,0,.48.48,0,0,0,.2-.32.12.12,0,0,1,.11-.09.41.41,0,0,1,.19,0,.43.43,0,0,1,.17,0C152.61,29.44,152.63,29.47,152.62,29.51Z"/><path class="cls-4" d="M161.36,30.59c0,.07.06.07.1,0a3.43,3.43,0,0,1,1.22-1,3.27,3.27,0,0,1,1.45-.36,2.81,2.81,0,0,1,2.33.89,3.54,3.54,0,0,1,.71,2.31v3.51c0,.33,0,.6,0,.8a1.19,1.19,0,0,0,.14.48.64.64,0,0,0,.33.27,3.54,3.54,0,0,0,.63.16.25.25,0,0,1,.17.11.49.49,0,0,1,.05.2.41.41,0,0,1-.05.18.19.19,0,0,1-.16.08,6.26,6.26,0,0,1-.8-.07,10,10,0,0,0-1.11-.06,11.76,11.76,0,0,0-1.2.06,8,8,0,0,1-1,.07.21.21,0,0,1-.17-.08A.32.32,0,0,1,164,38a.32.32,0,0,1,.06-.2.25.25,0,0,1,.19-.11,3.35,3.35,0,0,0,.68-.15.65.65,0,0,0,.34-.29,1.25,1.25,0,0,0,.13-.49q0-.3,0-.78V33.06a6.16,6.16,0,0,0-.07-1,3,3,0,0,0-.24-.86,1.74,1.74,0,0,0-.53-.64,1.56,1.56,0,0,0-.91-.25,2.22,2.22,0,0,0-1,.23,2.59,2.59,0,0,0-.7.55,2.47,2.47,0,0,0-.41.69,1.81,1.81,0,0,0-.13.62v3.37c0,.34,0,.62,0,.84a1.45,1.45,0,0,0,.11.53.7.7,0,0,0,.3.29,1.9,1.9,0,0,0,.56.16.25.25,0,0,1,.19.11.39.39,0,0,1,.06.2.32.32,0,0,1-.06.18.21.21,0,0,1-.17.08,5.77,5.77,0,0,1-.77-.07,9.56,9.56,0,0,0-1.09-.06,10.57,10.57,0,0,0-1.16.06,7.4,7.4,0,0,1-1,.07.2.2,0,0,1-.17-.08.32.32,0,0,1-.06-.18.32.32,0,0,1,.06-.2.25.25,0,0,1,.19-.11,3.23,3.23,0,0,0,.67-.15.64.64,0,0,0,.35-.29,1.09,1.09,0,0,0,.15-.49c0-.2,0-.46,0-.78V28.46c0-.54,0-1,0-1.3a2,2,0,0,0-.19-.75.79.79,0,0,0-.46-.36,5,5,0,0,0-.83-.15.15.15,0,0,1-.15-.1.6.6,0,0,1-.06-.19.46.46,0,0,1,0-.19.18.18,0,0,1,.17-.09c.36,0,.81-.06,1.34-.12a7.54,7.54,0,0,0,1.5-.28q.27-.08.36,0a.49.49,0,0,1,.1.22Z"/><path class="cls-4" d="M176.79,35.82c0,.31,0,.58,0,.8a1.18,1.18,0,0,0,.13.53.78.78,0,0,0,.35.32,2.31,2.31,0,0,0,.68.17.25.25,0,0,1,.17.11.31.31,0,0,1,.05.2.31.31,0,0,1-.05.18.21.21,0,0,1-.17.08,6.87,6.87,0,0,1-.9-.07,10.23,10.23,0,0,0-1.12-.06,11.37,11.37,0,0,0-1.18.06,8.74,8.74,0,0,1-1.12.07.19.19,0,0,1-.15-.08.32.32,0,0,1-.06-.18.32.32,0,0,1,.06-.2.25.25,0,0,1,.17-.11,2.87,2.87,0,0,0,.77-.17.81.81,0,0,0,.4-.31,1.09,1.09,0,0,0,.14-.5c0-.19,0-.44,0-.73V32.87c0-.54,0-1,0-1.31a1.89,1.89,0,0,0-.17-.75.69.69,0,0,0-.4-.35,3.07,3.07,0,0,0-.72-.15.19.19,0,0,1-.17-.1.33.33,0,0,1-.06-.19.38.38,0,0,1,.06-.19.2.2,0,0,1,.17-.09l.47,0,.58-.05.62-.07.56-.11a1.77,1.77,0,0,0,.33-.08.45.45,0,0,1,.2-.05c.15,0,.25,0,.29.13a.5.5,0,0,1,.07.25Zm-1-8.42a1.24,1.24,0,0,1-.82-.29,1,1,0,0,1-.34-.74,1,1,0,0,1,.33-.74,1.11,1.11,0,0,1,.79-.3,1,1,0,0,1,.75.31,1.05,1.05,0,0,1,.3.75,1,1,0,0,1-.29.72A1,1,0,0,1,175.78,27.4Z"/></g></g></g></g></svg>