<svg xmlns="http://www.w3.org/2000/svg" xmlns:xlink="http://www.w3.org/1999/xlink" width="186.5" height="54.001" viewBox="0 0 186.5 54.001">
  <defs>
    <filter id="楕円形_18" x="0" y="0" width="54" height="54" filterUnits="userSpaceOnUse">
      <feOffset input="SourceAlpha"/>
      <feGaussianBlur stdDeviation="2.5" result="blur"/>
      <feFlood flood-color="#bcbe8d"/>
      <feComposite operator="in" in2="blur"/>
      <feComposite in="SourceGraphic"/>
    </filter>
    <filter id="前面オブジェクトで型抜き_1" x="5.9" y="2.52" width="48.101" height="51.481" filterUnits="userSpaceOnUse">
      <feOffset input="SourceAlpha"/>
      <feGaussianBlur stdDeviation="2.5" result="blur-2"/>
      <feFlood flood-color="#fcffaf"/>
      <feComposite operator="in" in2="blur-2"/>
      <feComposite in="SourceGraphic"/>
    </filter>
  </defs>
  <g id="グループ_26" data-name="グループ 26" transform="translate(-421.5 -756.5)">
    <text id="Keiko_Kobayashi" data-name="Keiko 
Kobayashi" transform="translate(487 777)" fill="#3a3d43" font-size="19" font-family="PlantagenetCherokee, Plantagenet Cherokee" letter-spacing="0.22em"><tspan x="0" y="0">Keiko </tspan><tspan x="0" y="22">Kobayashi</tspan></text>
    <g id="グループ_25" data-name="グループ 25" transform="translate(-28 749)">
      <g transform="matrix(1, 0, 0, 1, 449.5, 7.5)" filter="url(#楕円形_18)">
        <circle id="楕円形_18-2" data-name="楕円形 18" cx="19.5" cy="19.5" r="19.5" transform="translate(7.5 7.5)" fill="none" opacity="0.723"/>
      </g>
      <path id="パス_11" data-name="パス 11" d="M5129.89-1399.349" transform="translate(-4640 1432)" fill="none" stroke="#707070" stroke-width="1"/>
      <g transform="matrix(1, 0, 0, 1, 449.5, 7.5)" filter="url(#前面オブジェクトで型抜き_1)">
        <path id="前面オブジェクトで型抜き_1-2" data-name="前面オブジェクトで型抜き 1" d="M-12818.5,2012.011a19.49,19.49,0,0,1-12.785-4.783c-.271-.235-.542-.485-.806-.741a19.5,19.5,0,0,0,9.6,2.523,19.379,19.379,0,0,0,7.59-1.532,19.428,19.428,0,0,0,6.2-4.179,19.442,19.442,0,0,0,4.18-6.2,19.388,19.388,0,0,0,1.532-7.591,19.374,19.374,0,0,0-1.587-7.716,19.438,19.438,0,0,0-4.318-6.262,19.632,19.632,0,0,1,3.2,2.263,19.353,19.353,0,0,1,4.723,6.136,19.429,19.429,0,0,1,1.937,7.221,19.441,19.441,0,0,1-.913,7.42,19.386,19.386,0,0,1-3.822,6.734A19.5,19.5,0,0,1-12818.5,2012.011Z" transform="translate(12845.49 -1965.51)" fill="#f4f7ac"/>
      </g>
      <path id="パス_108" data-name="パス 108" d="M13326.662-1952.826c-2.521.312-9.91,8.849-10.26,11.133-.249,3.516-6.108,9.107-6.721,7.8-.938-2.28,5.357-6.773,6.721-8.463,2.2-2.983-.407-10.648-3.872-10.469s3.46,6.811,3.872,10.469,5.939,9.343,10.26,8.463" transform="translate(-12841.307 1977.655)" fill="none" stroke="#506674" stroke-linecap="round" stroke-linejoin="bevel" stroke-width="1.5"/>
    </g>
  </g>
</svg>
