<svg xmlns="http://www.w3.org/2000/svg" viewBox="0 0 215.33 215.33"><defs><style>.cls-1{fill:#4b4b4b;}</style></defs><g id="レイヤー_2" data-name="レイヤー 2"><g id="W_Mark" data-name="W Mark"><g id="W_Mark-2" data-name="W Mark"><path class="cls-1" d="M107.67,6.46a100.67,100.67,0,0,1,39.39,8,101.54,101.54,0,0,1,44.53,36.68,101.07,101.07,0,0,1,0,113.16,101.79,101.79,0,0,1-27.34,27.34,101,101,0,0,1-113.16,0,101.45,101.45,0,0,1-36.68-44.53,101.58,101.58,0,0,1,0-78.79A101.6,101.6,0,0,1,68.27,14.41a100.72,100.72,0,0,1,39.4-7.95m0-6.46A107.67,107.67,0,1,0,215.33,107.67,107.66,107.66,0,0,0,107.67,0Z"/><path class="cls-1" d="M17.94,107.66a89.73,89.73,0,0,0,50.57,80.75L25.71,71.15A89.53,89.53,0,0,0,17.94,107.66Zm150.3-4.52c0-11.09-4-18.77-7.4-24.75C156.29,71,152,64.75,152,57.35c0-8.24,6.25-15.92,15.06-15.92.4,0,.78,0,1.17.07A89.7,89.7,0,0,0,32.7,58.38c2.11.07,4.09.11,5.78.11,9.38,0,23.91-1.14,23.91-1.14,4.83-.28,5.4,6.82.57,7.4,0,0-4.86.56-10.27.85l32.68,97.18L105,103.9,91,65.6c-4.84-.29-9.41-.85-9.41-.85-4.84-.29-4.27-7.68.56-7.4,0,0,14.82,1.14,23.63,1.14,9.39,0,23.92-1.14,23.92-1.14,4.84-.28,5.41,6.82.57,7.4,0,0-4.87.56-10.27.85L152.46,162l9.25-29.33C165.83,119.9,168.24,110.82,168.24,103.14Zm-59,12.37L82.32,193.73a89.67,89.67,0,0,0,55.14-1.43,7.93,7.93,0,0,1-.64-1.23ZM186.4,64.62a68.16,68.16,0,0,1,.6,9.23c0,9.1-1.7,19.33-6.82,32.13l-27.4,79.23A89.73,89.73,0,0,0,186.4,64.62Z"/></g></g></g></svg>