<svg xmlns="http://www.w3.org/2000/svg" viewBox="0 0 240.59 176.08"><defs><style>.cls-1{fill:#4b4b4b;}.cls-2{fill:#fff;}.cls-3{fill:#0087be;}</style></defs><g id="レイヤー_2" data-name="レイヤー 2"><g id="W_Mark" data-name="W Mark"><rect class="cls-1" x="21.32" width="197.95" height="125.43" rx="9.57"/><rect class="cls-2" x="30.92" y="12.08" width="178.75" height="100" rx="2"/><path class="cls-1" d="M233,176.08H7.59c-6.67,0-9.43-9.29-6.31-15.51L17.37,128.4c2.22-4.44,8.24-7.9,13.52-7.9H209.7c5.28,0,11.3,3.46,13.52,7.9l16.09,32.17C242.42,166.79,239.67,176.08,233,176.08Z"/><path class="cls-3" d="M61,69.35V63.64L95.79,47.39v8L70.38,66.47v.12L95.79,77.76v7.91Z"/><path class="cls-3" d="M113.17,88.55H106l15.69-52.07h7.15Z"/><path class="cls-3" d="M173.34,63v7L138.52,85.67V77.82l26.92-11.23v-.12L138.52,55.24V47.39Z"/></g></g></svg>